<svg width="71" height="61" viewBox="0 0 71 61" fill="none" xmlns="http://www.w3.org/2000/svg">
<path d="M60.8521 20.6622L61.036 20.9132L61.062 22.6142L61.104 22.7352L61.006 22.7532L60.896 22.8822L60.767 23.0812L60.59 23.1842L60.448 23.3002L60.314 23.4442L60.194 23.4752L60.039 23.2922L59.932 23.1052L59.958 23.0642L60.033 23.0512L60.061 22.9542L60.0161 22.8142L59.911 22.7612L59.7791 22.7572L59.652 22.8202L59.517 22.9442L59.441 23.0772L59.4301 23.3442L59.465 23.6442L59.4641 23.7902L59.39 23.9712L59.364 24.2372L59.4171 24.4432L59.465 24.5662L59.47 24.6702L59.3441 24.9982L59.453 25.0602L59.814 25.0832L59.92 25.3052L59.992 25.4572L59.972 25.5472L59.716 25.6142L59.394 25.6882L59.163 25.6672L58.745 25.7672L58.522 25.9212L58.587 26.0172L58.664 26.0912L58.699 26.2942L58.634 26.5822L58.5161 26.8612L58.369 27.2092L58.199 27.6082L57.966 28.2082L57.769 28.6792L57.748 29.0182L57.7531 29.2392L57.731 29.6802L57.544 29.9232L57.502 29.9302L57.2791 29.9012L57.204 29.8912L56.991 29.8632L56.661 29.8202L56.2321 29.7632L55.725 29.6972L55.16 29.6222L54.556 29.5422L53.931 29.4602L53.307 29.3782L52.702 29.2982L52.137 29.2242L51.63 29.1572L51.202 29.1002L50.872 29.0572L50.659 29.0292L50.584 29.0192L50.348 28.9882L50.221 28.8242L50.067 28.6262L49.912 28.4272L49.758 28.2282L49.604 28.0292L49.45 27.8302L49.296 27.6312L49.142 27.4322L48.988 27.2332L48.834 27.0332L48.6801 26.8342L48.525 26.6342L48.371 26.4342L48.217 26.2342L48.063 26.0342L47.909 25.8342L47.755 25.6342L47.651 25.5002L47.5941 25.3492L47.583 24.9532V24.8662L47.687 24.7062L47.737 24.8202L47.853 24.9752L48.05 24.9372L48.142 24.9632L48.21 25.5122L48.355 25.7072L48.531 25.7852L49.1281 25.8282L49.499 25.7542L50.23 25.3962L50.614 25.2672L51.676 25.2892L52.527 25.4382L53.8521 25.5262L54.109 25.5032L54.824 25.2152L55.262 24.9612L55.523 24.8882L55.695 24.6422L55.808 24.3222L55.909 24.1132L56.038 24.0132L56.16 23.8352L56.259 23.5462L56.505 23.2542L57.491 22.5432L58.067 21.9412L58.118 21.7462L58.431 21.4542L58.682 21.1342L59.8571 20.2182L60.092 19.8392L60.231 19.4142L60.248 19.3842L60.349 19.3662L60.493 19.4302L60.508 19.7482L60.455 20.0482L60.449 20.3662L60.428 20.5382L60.537 20.6792L60.723 20.7402L60.804 20.7332L60.8521 20.6622ZM60.806 21.9452L60.823 21.8122L60.794 21.7432L60.674 21.7342L60.624 21.8492L60.6071 22.0142L60.69 22.0282L60.806 21.9452ZM55.71 24.3832L55.685 24.4432L55.606 24.4382L55.408 24.3842L55.3441 24.2982L55.468 24.1952L55.523 24.1902L55.6021 24.2982L55.71 24.3832ZM52.5291 24.9472L52.321 24.9642L52.133 24.8482L52.53 24.6932L52.637 24.6232L52.7531 24.4802L52.846 24.6032L52.743 24.7962L52.67 24.8792L52.5291 24.9472ZM50.521 24.8562L50.474 24.8782L50.424 24.7132L50.427 24.6612L50.556 24.5862L50.635 24.7212L50.521 24.8562ZM54.2 25.1962L54.201 25.3002L53.916 25.2702L53.84 25.3242L53.606 25.2942L53.377 25.2192L53.532 25.0942L53.936 24.9472L54.104 25.0812L54.2 25.1962Z" fill="#7E7E7E"/>
<path d="M44.8818 19.9415L44.7908 20.1785L44.7038 20.0955L44.4838 19.6855L44.5498 19.3975L44.4468 18.9855L44.4958 18.8675L44.7598 18.8125L44.8208 18.8305L44.7418 18.9625L44.8878 19.1925L44.9098 19.5715L44.8818 19.9415Z" fill="#7E7E7E"/>
<path d="M37.5038 6.98227L37.4899 7.10126L37.5798 7.45627L37.7808 7.84326L37.9459 8.15625L37.9669 8.30325L37.8159 8.28226L37.7009 8.22327L37.4799 8.16125L37.0529 8.57626L36.7949 8.80225L36.7878 8.87927L37.1318 8.96625L37.3848 8.96426L37.5609 8.90326L37.7098 9.00027L37.8079 9.25626L37.8469 9.46426L38.0809 10.2032L38.2748 10.4523L38.5168 10.8923L38.6069 11.1203L38.6588 11.3112L38.8068 11.5933L38.3188 11.6003L37.7039 11.6103L37.2048 11.6163L36.6418 11.6233L36.3939 11.3223L36.3109 10.9922L36.2208 10.6533L35.9738 10.1693L35.1478 10.0522L34.7089 9.98926L33.9858 9.89725L33.4438 9.82825L33.8998 9.30627L34.1118 9.02527L34.4948 8.41626L34.6918 7.98126L34.8818 7.49826L35.0458 7.12225L35.0798 7.05325L35.1749 6.92526L35.3848 6.79425L35.6879 6.67126L36.2028 6.61725L36.5648 6.61426L36.6469 6.62027L36.8748 6.68127L37.5038 6.98227ZM38.3369 8.13525L38.1758 8.20728L38.0679 8.17627L37.9639 8.00327L37.7928 7.57327L37.8859 7.41226L37.8828 7.34326L37.9019 7.29126L37.9548 7.25827L38.0098 7.05527L38.0839 6.99326L38.2039 7.13025L38.5419 7.62527L38.5399 7.82727L38.5198 7.90826L38.3369 8.13525Z" fill="#7E7E7E"/>
<path d="M60.8516 20.6627L60.7965 20.7337L60.7155 20.7407L60.5295 20.6797L60.4205 20.5387L60.4415 20.3667L60.4475 20.0487L60.5005 19.7487L60.4855 19.4307L60.3416 19.3667L60.2405 19.3847L60.4755 18.9357L60.5685 18.8667L60.6555 18.8957L60.8726 18.8477L60.9865 18.6037L61.0775 18.4707L61.1746 18.4867L61.2216 18.5617L61.1876 18.9327L61.1835 19.2417L61.0635 20.1857L60.9395 20.3487L60.8765 20.4807L60.8516 20.6627ZM60.8055 21.9457L60.6895 22.0287L60.6066 22.0147L60.6235 21.8497L60.6735 21.7347L60.7935 21.7437L60.8225 21.8127L60.8055 21.9457ZM51.8365 47.6297L51.6666 47.2457L51.4965 46.8617L51.3256 46.4777L51.1555 46.0927L51.0366 45.8227L50.8365 45.7277L50.7145 45.4427L50.5905 45.1507L50.4666 44.8587L50.3425 44.5667L50.2186 44.2747L50.0936 43.9817L49.9695 43.6887L49.8455 43.3957L49.7216 43.1027L49.5966 42.8097L49.4725 42.5167L49.3485 42.2227L49.2245 41.9287L49.1005 41.6347L48.9755 41.3407L48.8516 41.0467L48.7275 40.7527L49.1235 40.6137L49.6055 40.4447L50.0886 40.2757L50.5706 40.1067L51.0535 39.9377L51.5355 39.7687L52.0175 39.5987L52.5005 39.4297L52.9825 39.2607L53.4655 39.0907L53.9475 38.9207L54.4296 38.7517L54.9125 38.5817L55.3945 38.4117L55.8765 38.2417L56.3596 38.0717L56.8416 37.9017L57.1406 37.7967L57.2645 37.4007L57.3676 37.0717L57.4705 36.7427L57.5735 36.4127L57.6776 36.0827L57.7805 35.7527L57.8835 35.4227L57.9865 35.0917L58.0905 34.7607L58.1935 34.4297L58.2965 34.0987L58.3995 33.7667L58.5026 33.4347L58.6066 33.1027L58.7095 32.7707L58.8126 32.4377L58.9155 32.1047L59.0106 31.7997L58.8325 31.5057L58.5945 31.1097L58.3445 30.6957L58.1105 30.3057L57.9395 30.0217L57.7335 29.6787L57.7556 29.2377L57.7505 29.0167L57.7715 28.6777L57.9686 28.2067L58.2015 27.6067L58.3715 27.2077L58.5186 26.8597L58.6365 26.5807L58.7015 26.2927L58.6666 26.0897L58.5895 26.0157L58.5245 25.9197L58.7476 25.7657L59.1655 25.6657L59.3965 25.6867L59.7186 25.6127L59.9745 25.5457L59.9945 25.4557L59.9225 25.3037L59.8165 25.0817L59.4556 25.0587L59.3466 24.9967L59.4725 24.6687L59.4675 24.5647L59.4196 24.4417L59.3665 24.2357L59.3925 23.9697L59.4666 23.7887L59.4675 23.6427L59.4326 23.3427L59.4435 23.0757L59.5195 22.9427L59.6545 22.8187L59.7816 22.7557L59.9135 22.7597L60.0186 22.8127L60.0635 22.9527L60.0355 23.0497L59.9605 23.0627L59.9345 23.1037L60.0416 23.2907L60.1965 23.4737L60.3165 23.4427L60.4506 23.2987L60.5925 23.1827L60.7695 23.0797L60.8986 22.8807L61.0085 22.7517L61.1066 22.7337L61.3925 23.5417L61.8165 24.2967L62.1906 24.7127L62.5795 25.2767L63.1705 25.7947L63.4415 25.9717L64.5405 26.3347L65.1415 26.4707L65.9695 26.6007L66.5425 26.8827L66.7346 26.9007L67.0345 26.8167L67.2535 26.8237L67.8015 27.2077L67.9625 27.5717L68.1906 27.7637L68.3915 28.0657L68.5225 28.3817L68.9855 28.8627L69.3115 29.4037L69.6436 29.8037L69.9406 30.0527L70.3906 30.1507L70.7485 30.2627L70.7885 30.5297L70.7515 30.8777L70.6835 31.1347L70.3495 31.6347L70.2695 31.9427L69.8915 32.4507L69.4816 33.3017L69.2935 33.4917L68.6325 33.9297L68.1465 34.4567L67.5706 35.3707L67.1325 36.2747L66.9645 36.5637L66.6115 36.6237L66.3806 36.5987L66.2205 36.5137L66.2835 36.2667L66.3215 35.9917L66.1085 36.0207L65.9215 36.0777L65.4846 36.7527L65.2445 37.0487L65.1935 37.4237L65.0775 37.9077L64.9066 38.3527L64.8306 38.7267L64.8336 38.9387L64.9615 39.4557L64.9705 39.9847L65.0446 40.3017L65.1046 40.6817L64.8995 40.7987L64.7235 40.8567L64.0275 40.8987L63.3225 41.0207L62.7065 41.2407L62.3386 41.4597L61.8596 41.9487L61.5665 43.1877L61.0975 43.7097L60.7795 43.8187L60.0145 43.8647L58.9376 44.0087L58.5595 44.1337L57.9315 44.8877L57.8825 45.1247L58.0035 45.2957L58.0435 45.4847L57.9865 45.6617L57.7015 46.1387L57.3936 46.4847L56.5735 46.7017L56.2725 46.5727L55.9976 46.5077L55.4655 46.5007L54.5995 46.5827L54.2805 46.8387L53.7775 47.0197L53.3135 47.2987L52.4376 47.4047L51.8365 47.6297ZM67.6545 37.1297L67.4775 37.1747L67.4265 37.1537L67.4276 36.7777L67.8395 36.3037L68.1105 35.7557L68.2975 36.2457L67.9725 36.5197L67.7965 36.9877L67.6545 37.1297Z" fill="#7E7E7E"/>
<path d="M46.7359 23.8795L46.4829 23.9425L46.2459 24.0095L46.0479 24.0075L45.8879 23.9815L45.7819 23.9165L45.5779 23.6565L45.4339 23.3195L45.5229 23.1315L45.5529 23.0145L45.3579 22.1245L45.2949 21.4395L45.3179 21.2995L45.4289 21.1375L45.6149 20.7795L45.7139 20.4345L45.9919 19.6365L46.2869 19.3285L46.7189 19.1025L47.0749 19.5445L47.5069 19.8815L47.5899 20.2585L47.4629 20.5655L47.3449 21.0515L47.4159 21.2755L47.4419 21.4695L47.5589 21.7945L47.6729 22.2155L47.6919 22.5085L47.6309 22.7795L47.4799 23.0075L47.1839 23.6915L47.0959 23.7625L46.7359 23.8795Z" fill="#7E7E7E"/>
<path d="M33.4431 9.827L33.985 9.896L34.708 9.98798L35.147 10.051L35.973 10.168L36.22 10.652L36.31 10.991L36.393 11.321L36.6411 11.622L37.204 11.615L37.703 11.609L38.3181 11.599L38.806 11.592L38.963 11.891L39.032 12.189L39.322 12.894L39.736 13.443L39.835 13.643L39.901 13.944L39.829 14.056L39.801 14.185L40.108 14.485L40.614 14.739L40.812 14.803L41.037 14.915L40.862 15.088L41.161 15.488L41.508 15.895L41.88 15.987L42.382 16.601L43.139 16.998L43.598 17.518L43.5551 17.528L43.42 17.475L43.251 17.404L43.2 17.468L43.209 17.686L43.254 17.942L43.488 18.163L43.696 18.322L43.777 18.623L43.613 19.27H43.556L43.446 19.214L43.329 19.201L43.2661 19.238L43.405 19.703L43.544 20.059L43.71 20.341L43.849 20.753L43.968 20.929L44.455 21.366L44.605 21.731L44.744 22.41L45.05 22.788L45.215 23.079L45.436 23.326L45.58 23.663L45.784 23.922L45.89 23.987L46.049 24.014L46.247 24.015L46.484 23.948L46.737 23.885L46.934 24.016L47.138 23.996L47.159 24.118L47.022 24.284L46.854 24.702L47.093 24.768L47.322 24.801L47.484 24.868H47.579V24.955L47.59 25.351L47.647 25.502L47.751 25.636L47.905 25.836L48.059 26.036L48.213 26.236L48.367 26.436L48.521 26.636L48.676 26.836L48.83 27.035L48.984 27.235L49.138 27.434L49.2921 27.633L49.446 27.832L49.6 28.031L49.754 28.23L49.908 28.429L50.063 28.628L50.217 28.826L50.3441 28.99L50.58 29.021L50.655 29.031L50.868 29.059L51.198 29.102L51.626 29.159L52.133 29.226L52.698 29.3L53.303 29.38L53.927 29.462L54.552 29.544L55.156 29.624L55.721 29.699L56.228 29.765L56.657 29.822L56.987 29.865L57.2 29.893L57.275 29.903L57.498 29.932L57.54 29.925L57.7271 29.682L57.933 30.025L58.104 30.309L58.338 30.699L58.588 31.113L58.826 31.509L59.004 31.803L58.909 32.108L58.806 32.441L58.703 32.774L58.6 33.106L58.496 33.438L58.393 33.77L58.29 34.102L58.187 34.433L58.084 34.764L57.98 35.095L57.877 35.426L57.774 35.756L57.671 36.086L57.567 36.416L57.4641 36.746L57.361 37.075L57.258 37.404L57.134 37.8L56.835 37.905L56.353 38.075L55.87 38.245L55.388 38.415L54.906 38.585L54.423 38.755L53.941 38.924L53.459 39.094L52.976 39.264L52.494 39.433L52.011 39.602L51.5291 39.772L51.047 39.941L50.564 40.11L50.082 40.279L49.599 40.448L49.117 40.617L48.721 40.756L48.062 40.849L47.422 40.939L46.702 41.041L45.837 41.164L45.158 41.26L44.168 41.4L43.2791 41.525L42.446 41.643L41.613 41.761L40.9041 41.861L40.481 41.977L39.984 42.232L39.221 42.623L38.4431 43.02L38.04 43.226L37.618 43.754L37.4041 44.021L37.018 44.504L36.726 44.868L36.377 45.303L36.225 45.689L35.9901 46.285L35.787 46.435L35.455 46.629L35.153 46.767L34.682 46.747L34.413 46.381L34.1281 45.992L33.985 45.836L33.8571 45.828L33.384 45.877L32.814 45.937L32.142 45.874L31.367 45.8L30.64 45.731L30.278 45.679L29.801 45.427L29.678 45.377L29.553 45.365L28.987 45.359L28.426 45.353L27.864 45.433L27.326 45.404L26.768 45.45L26.572 45.546L26.354 45.541L26.218 45.626L26.098 45.666L25.9561 45.593L25.782 45.609L25.526 45.546L25.359 45.381L25.201 45.236L25.038 45.156L24.856 45.106L24.698 45.105L24.496 45.193L24.373 45.278L24.061 45.563L24.048 45.665L24.19 45.835L24.147 45.915L23.963 46.015L23.906 46.284L23.879 46.431L23.8521 46.783L23.934 47.06L24.043 47.162L24.048 47.281L23.988 47.519L23.819 47.592L23.695 47.818L23.619 47.923L23.487 48.043L22.962 48.442L22.936 48.21L22.769 47.866L22.757 47.623L22.679 47.379L22.535 47.191L22.269 46.995L22.245 46.729L22.051 46.466L21.794 46.254L21.651 45.862L21.543 45.341L20.8651 44.655L20.017 44.021L19.759 43.664L19.337 42.935L19.124 42.358L18.557 41.693L18.533 41.437L18.449 41.125L18.3181 40.777L18.239 40.503L17.67 39.297L17.486 39.105L17.328 38.835L17.287 38.626L17.237 38.512L16.835 38.314L16.46 37.806L15.333 36.996L14.781 36.915L14.3441 36.625L14.022 36.246L13.679 35.592L13.075 34.884L12.563 33.878L12.724 33.511L12.7141 33.253L12.556 32.818L12.385 32.482L12.267 32.164L12.36 31.707L12.396 31.195L12.497 30.923L12.57 30.624L12.475 30.022L12.3051 29.699L12.322 29.484L12.129 29.379L11.973 29.145H12.136L11.84 28.82L11.731 28.639L11.619 28.197L11.476 27.859L11.017 27.091L10.797 26.622L10.3051 26.015L9.771 25.566L9.43201 25.362L9.26801 25.176L8.99103 25.17L8.68903 24.904L8.47803 24.894L8.211 24.851L7.89703 24.338L7.638 23.857L7.19604 23.23L7.30701 23.066L7.43604 22.799L7.37201 22.449L7.302 22.211L7.10706 21.777L6.466 20.695L6.29602 20.536L6.02301 20.353L5.85504 19.883L5.77802 19.461L5.33905 19.256L4.58405 17.73L4.146 17.195L3.97302 16.835L3.46704 16.242L3.21802 15.651L2.70801 15.105L2.26605 14.156L1.58301 13.205L1.29602 13.04L0.592041 12.972L0.296021 12.902L0.0240479 13.111L0 12.846L0.188049 12.479L0.459045 11.707L0.513 11.029L0.939026 9.00699L1.53705 9.11099L2.02905 9.19699L2.74805 9.323L3.492 9.45297L3.927 9.52899L4.07605 9.49597L4.67804 9L5.22003 8.55197L5.54504 8.00299L5.85901 7.47L6.00305 7.35999L6.48505 7.25998L7.25 7.10098L8.00702 6.944L8.06805 6.88998L8.24402 6.461L8.46802 5.91599L8.51404 5.85898L8.56903 5.80298L9.11102 5.49698L9.44 5.31097L8.97101 4.76199L8.52905 4.24298L8.03302 3.66098L7.61304 3.207L6.98401 2.52698L6.57202 2.08099L7.29303 1.86899L8.073 1.63998L8.86005 1.409L9.80701 1.13098L10.548 0.912994L11.6541 0.586975L12.195 0.427979L12.293 0.385986L12.709 0L13.335 0.107971L14.276 0.270996L15.185 0.426971L16.143 0.612L16.45 0.761993L17.375 1.314L17.976 1.672L18.678 2.08899L19.5551 2.60999L20.157 2.96698L20.928 3.42398L21.5291 3.94498L22.29 4.60397L23.126 5.32599L23.814 5.88599L24.762 6.65598L25.696 7.41299L26.611 8.15198L27.343 8.74298L28.27 9.48898L28.342 9.517L29.2791 9.60098L30.538 9.715L31.803 9.82898L32.945 9.93198L33.4431 9.827ZM5.55701 20.469L5.53101 20.511L5.41302 20.402L5.42004 20.163L5.52203 20.027L5.51404 20.213L5.55804 20.401L5.55701 20.469ZM6.41705 21.489H6.34302L6.146 21.28L6.03101 21.126L5.91302 21.022L5.375 20.813L5.302 20.678L5.38403 20.543L5.44202 20.677L5.54004 20.756L5.98505 20.945L6.48102 21.357L6.56604 21.391L6.41705 21.489ZM20.691 47.434L20.908 47.451L20.8181 47.358L20.799 47.313L20.893 47.179L21.203 47.455L21.194 47.782L21.168 47.857L21.084 47.787L21.0291 47.718L21.012 47.644L20.926 47.564L20.624 47.616L20.436 47.527L20.1671 47.252L20.095 47.053L20.207 47.014L20.326 46.918L20.401 46.761L20.332 46.598L20.492 46.624L20.578 46.791L20.595 47.17L20.619 47.25L20.575 47.337L20.691 47.434Z" fill="#7E7E7E"/>
<path d="M51.8366 47.629L50.4216 48.147L50.0486 48.377L49.7096 48.661L49.4556 49.016L49.2776 49.639L49.4126 50.208L49.3996 50.513L49.0346 50.715L48.6936 50.86L48.3146 51.082L48.0846 51.137L47.8966 51.313L47.6776 51.436L46.8886 51.756L46.0266 52.003L44.6566 52.299L44.1276 52.62L43.6466 52.84L42.9156 52.906L41.9116 53.211L41.3536 53.455L40.6606 53.852L40.5076 53.977L40.3856 54.269L40.1726 54.521L39.7556 54.934L39.4426 55.146L39.2336 55.157L38.8276 55.273L38.3466 55.297L37.5386 55.152L37.3306 55.253L37.1596 55.414L36.5366 55.697L35.9036 56.262L35.4406 56.412L34.6916 56.589L34.1676 56.824L33.8156 56.918L33.3626 56.967L32.5236 56.943L31.7286 57.028L30.9916 57.187L30.6456 57.488L30.2506 57.965L29.6056 58.162L29.4536 58.333L29.2546 58.684L28.8376 58.775L28.4596 58.834L28.0736 58.681L27.3456 59.105L27.0706 59.175L26.6526 59.192L26.3556 59.281L26.1426 59.256L25.8776 59.09L25.3136 58.889L24.9016 59.02L24.8666 58.619L24.1836 57.393L24.3256 56.324V56.173L24.1896 55.695L23.7826 55.258L23.7946 54.704L23.6586 54.308L23.5506 53.9L23.5856 53.792L23.5916 53.694L23.3836 53.065L23.3146 52.938L23.2886 52.806L23.3566 52.705L23.3546 52.588L23.2446 52.395L23.1276 52.027L22.5726 51.738L22.6856 51.467L22.7936 51.562L22.9396 51.643L22.9696 51.468L22.9716 51.337L22.7396 50.518L23.0836 49.424L22.9706 48.437L23.4956 48.038L23.6276 47.918L23.7036 47.813L23.8276 47.587L23.9966 47.514L24.0566 47.276L24.0516 47.157L23.9426 47.055L23.8606 46.778L23.8876 46.426L23.9146 46.279L23.9716 46.01L24.1556 45.91L24.1986 45.83L24.0566 45.66L24.0696 45.558L24.3816 45.273L24.5046 45.188L24.7066 45.1L24.8646 45.101L25.0466 45.151L25.2096 45.231L25.3676 45.376L25.5346 45.541L25.7906 45.604L25.9646 45.588L26.1066 45.661L26.2266 45.621L26.3626 45.536L26.5806 45.541L26.7766 45.445L27.3346 45.399L27.8726 45.428L28.4346 45.348L28.9956 45.354L29.5616 45.36L29.6866 45.372L29.8096 45.422L30.2866 45.674L30.6486 45.726L31.3756 45.795L32.1506 45.869L32.8226 45.932L33.3926 45.872L33.8656 45.823L33.9936 45.831L34.1366 45.987L34.4216 46.376L34.6906 46.742L35.1616 46.762L35.4636 46.624L35.7956 46.43L35.9986 46.28L36.2336 45.684L36.3856 45.298L36.7346 44.863L37.0266 44.499L37.4126 44.016L37.6266 43.749L38.0486 43.221L38.4516 43.015L39.2296 42.618L39.9926 42.227L40.4896 41.972L40.9126 41.856L41.6216 41.756L42.4546 41.638L43.2876 41.52L44.1766 41.395L45.1666 41.255L45.8456 41.159L46.7106 41.036L47.4306 40.934L48.0706 40.844L48.7296 40.751L48.8536 41.045L48.9776 41.339L49.1026 41.633L49.2266 41.927L49.3506 42.221L49.4746 42.515L49.5986 42.808L49.7236 43.101L49.8476 43.394L49.9716 43.687L50.0956 43.98L50.2206 44.273L50.3446 44.565L50.4686 44.857L50.5926 45.149L50.7166 45.441L50.8386 45.726L51.0386 45.821L51.1576 46.091L51.3276 46.476L51.4986 46.86L51.6686 47.244L51.8366 47.629ZM22.3816 51.532L22.2936 51.596L22.2666 51.484L22.3246 51.232L22.4166 51.159L22.4786 51.346L22.4386 51.449L22.3816 51.532ZM22.9346 55.371L22.8976 55.432L22.8466 55.419L22.6726 55.266L22.8636 55.095L22.9656 55.254L22.9346 55.371ZM22.8456 56.139L22.6596 56.227L22.7866 55.999L22.9166 55.952L22.9526 55.961L22.8456 56.139ZM53.7376 59.196L53.9116 59.23L54.1746 59.131L54.9286 59.118L55.8376 59.436L55.6656 59.519L55.5636 59.634L55.1646 59.739L54.7666 59.984L53.6146 60.103L53.2766 60.037L52.9986 59.8L52.4836 59.492L52.6866 59.295L52.7306 59.205L52.8066 59.119L53.0976 58.97L53.3886 58.994L53.7376 59.196Z" fill="#7E7E7E"/>
</svg>
